<svg width="154" height="64" viewBox="0 0 154 64" fill="none" xmlns="http://www.w3.org/2000/svg">
<g filter="url(#filter0_d_3_216)">
<rect x="2" y="1" width="150" height="60" rx="8" fill="black" shape-rendering="crispEdges"/>
<path d="M30.905 23.44L44 31.015L57.095 23.44M44 46.12V31M57.5 37V25C57.4995 24.4739 57.3606 23.9572 57.0973 23.5017C56.834 23.0463 56.4556 22.668 56 22.405L45.5 16.405C45.0439 16.1417 44.5266 16.0031 44 16.0031C43.4734 16.0031 42.9561 16.1417 42.5 16.405L32 22.405C31.5444 22.668 31.166 23.0463 30.9027 23.5017C30.6394 23.9572 30.5005 24.4739 30.5 25V37C30.5005 37.5261 30.6394 38.0428 30.9027 38.4983C31.166 38.9537 31.5444 39.332 32 39.595L42.5 45.595C42.9561 45.8583 43.4734 45.9969 44 45.9969C44.5266 45.9969 45.0439 45.8583 45.5 45.595L56 39.595C56.4556 39.332 56.834 38.9537 57.0973 38.4983C57.3606 38.0428 57.4995 37.5261 57.5 37Z" stroke="#F3F3F3" stroke-width="4" stroke-linecap="round" stroke-linejoin="round"/>
<path d="M71.9176 40V22.5455H74.5511V37.733H82.4602V40H71.9176ZM90.7741 40.2642C89.5469 40.2642 88.4759 39.983 87.5611 39.4205C86.6463 38.858 85.9361 38.071 85.4304 37.0597C84.9247 36.0483 84.6719 34.8665 84.6719 33.5142C84.6719 32.1562 84.9247 30.9687 85.4304 29.9517C85.9361 28.9347 86.6463 28.1449 87.5611 27.5824C88.4759 27.0199 89.5469 26.7386 90.7741 26.7386C92.0014 26.7386 93.0724 27.0199 93.9872 27.5824C94.902 28.1449 95.6122 28.9347 96.1179 29.9517C96.6236 30.9687 96.8764 32.1562 96.8764 33.5142C96.8764 34.8665 96.6236 36.0483 96.1179 37.0597C95.6122 38.071 94.902 38.858 93.9872 39.4205C93.0724 39.983 92.0014 40.2642 90.7741 40.2642ZM90.7827 38.125C91.5781 38.125 92.2372 37.9148 92.7599 37.4943C93.2827 37.0739 93.669 36.5142 93.919 35.8153C94.1747 35.1165 94.3026 34.3466 94.3026 33.5057C94.3026 32.6705 94.1747 31.9034 93.919 31.2045C93.669 30.5 93.2827 29.9347 92.7599 29.5085C92.2372 29.0824 91.5781 28.8693 90.7827 28.8693C89.9815 28.8693 89.3168 29.0824 88.7884 29.5085C88.2656 29.9347 87.8764 30.5 87.6207 31.2045C87.3707 31.9034 87.2457 32.6705 87.2457 33.5057C87.2457 34.3466 87.3707 35.1165 87.6207 35.8153C87.8764 36.5142 88.2656 37.0739 88.7884 37.4943C89.3168 37.9148 89.9815 38.125 90.7827 38.125ZM105.21 45.1818C104.17 45.1818 103.275 45.0455 102.525 44.7727C101.781 44.5 101.173 44.1392 100.701 43.6903C100.229 43.2415 99.8771 42.75 99.6442 42.2159L101.835 41.3125C101.988 41.5625 102.192 41.8267 102.448 42.1051C102.71 42.3892 103.062 42.6307 103.505 42.8295C103.954 43.0284 104.531 43.1278 105.235 43.1278C106.201 43.1278 106.999 42.892 107.63 42.4205C108.261 41.9545 108.576 41.2102 108.576 40.1875V37.6136H108.414C108.261 37.892 108.039 38.2017 107.749 38.5426C107.465 38.8835 107.073 39.179 106.573 39.429C106.073 39.679 105.423 39.804 104.621 39.804C103.587 39.804 102.656 39.5625 101.826 39.0795C101.002 38.5909 100.349 37.8722 99.8658 36.9233C99.3885 35.9687 99.1499 34.7955 99.1499 33.4034C99.1499 32.0114 99.3857 30.8182 99.8572 29.8239C100.335 28.8295 100.988 28.0682 101.817 27.5398C102.647 27.0057 103.587 26.7386 104.638 26.7386C105.451 26.7386 106.107 26.875 106.607 27.1477C107.107 27.4148 107.496 27.7273 107.775 28.0852C108.059 28.4432 108.278 28.7585 108.431 29.0312H108.619V26.9091H111.116V40.2898C111.116 41.4148 110.854 42.3381 110.332 43.0597C109.809 43.7813 109.102 44.3153 108.21 44.6619C107.323 45.0085 106.323 45.1818 105.21 45.1818ZM105.184 37.6903C105.917 37.6903 106.536 37.5199 107.042 37.179C107.553 36.8324 107.94 36.3381 108.201 35.696C108.468 35.0483 108.602 34.2727 108.602 33.3693C108.602 32.4886 108.471 31.7131 108.21 31.0426C107.948 30.3722 107.565 29.8494 107.059 29.4744C106.553 29.0937 105.928 28.9034 105.184 28.9034C104.417 28.9034 103.778 29.1023 103.266 29.5C102.755 29.892 102.369 30.4261 102.107 31.1023C101.852 31.7784 101.724 32.5341 101.724 33.3693C101.724 34.2273 101.854 34.9801 102.116 35.6278C102.377 36.2756 102.763 36.7812 103.275 37.1449C103.792 37.5085 104.428 37.6903 105.184 37.6903ZM120.048 40.2642C118.82 40.2642 117.749 39.983 116.835 39.4205C115.92 38.858 115.21 38.071 114.704 37.0597C114.198 36.0483 113.945 34.8665 113.945 33.5142C113.945 32.1562 114.198 30.9687 114.704 29.9517C115.21 28.9347 115.92 28.1449 116.835 27.5824C117.749 27.0199 118.82 26.7386 120.048 26.7386C121.275 26.7386 122.346 27.0199 123.261 27.5824C124.175 28.1449 124.886 28.9347 125.391 29.9517C125.897 30.9687 126.15 32.1562 126.15 33.5142C126.15 34.8665 125.897 36.0483 125.391 37.0597C124.886 38.071 124.175 38.858 123.261 39.4205C122.346 39.983 121.275 40.2642 120.048 40.2642ZM120.056 38.125C120.852 38.125 121.511 37.9148 122.033 37.4943C122.556 37.0739 122.942 36.5142 123.192 35.8153C123.448 35.1165 123.576 34.3466 123.576 33.5057C123.576 32.6705 123.448 31.9034 123.192 31.2045C122.942 30.5 122.556 29.9347 122.033 29.5085C121.511 29.0824 120.852 28.8693 120.056 28.8693C119.255 28.8693 118.59 29.0824 118.062 29.5085C117.539 29.9347 117.15 30.5 116.894 31.2045C116.644 31.9034 116.519 32.6705 116.519 33.5057C116.519 34.3466 116.644 35.1165 116.894 35.8153C117.15 36.5142 117.539 37.0739 118.062 37.4943C118.59 37.9148 119.255 38.125 120.056 38.125Z" fill="white"/>
</g>
<defs>
<filter id="filter0_d_3_216" x="0" y="0" width="154" height="64" filterUnits="userSpaceOnUse" color-interpolation-filters="sRGB">
<feFlood flood-opacity="0" result="BackgroundImageFix"/>
<feColorMatrix in="SourceAlpha" type="matrix" values="0 0 0 0 0 0 0 0 0 0 0 0 0 0 0 0 0 0 127 0" result="hardAlpha"/>
<feOffset dy="1"/>
<feGaussianBlur stdDeviation="1"/>
<feComposite in2="hardAlpha" operator="out"/>
<feColorMatrix type="matrix" values="0 0 0 0 0 0 0 0 0 0 0 0 0 0 0 0 0 0 0.05 0"/>
<feBlend mode="normal" in2="BackgroundImageFix" result="effect1_dropShadow_3_216"/>
<feBlend mode="normal" in="SourceGraphic" in2="effect1_dropShadow_3_216" result="shape"/>
</filter>
</defs>
</svg>
